PathFileType	4	(X/Y/Z)	C:\Users\Graham\Documents\MATLAB\MOtoNMS_v2_2\MyData\ElaboratedData\S3\17-05-18\staticElaborations\Static1\Static1\\Static1.trc
DataRate	CameraRate	NumFrames	NumMarkers	Units	OrigDataRate	DataStartFrame
100	100	6	38	mm	100	2
Frame#	Time	V_Sacral			R_ASIS			L_ASIS			R_Knee_Lat			R_Knee_Med			R_Thigh_Upper			R_Thigh_Front			R_Thigh_Rear			L_Knee_Lat			L_Knee_Med			L_Thigh_Upper			L_Thigh_Front			L_Thigh_Rear			R_Ankle_Lat			R_Ankle_Med			R_Shank_Upper			R_Shank_Front			R_Shank_Rear			L_Ankle_Lat			L_Ankle_Med			L_Shank_Upper			L_Shank_Front			L_Shank_Rear			R_Heel			R_MTP1			R_MTP5			L_Heel			L_MTP1			L_MTP5			Clavicle			R_Acromium			L_Acromium			LAJC			RAJC			LHJC			RHJC			LKJC			RKJC		
		X1	Y1	Z1	X2	Y2	Z2	X3	Y3	Z3	X4	Y4	Z4	X5	Y5	Z5	X6	Y6	Z6	X7	Y7	Z7	X8	Y8	Z8	X9	Y9	Z9	X10	Y10	Z10	X11	Y11	Z11	X12	Y12	Z12	X13	Y13	Z13	X14	Y14	Z14	X15	Y15	Z15	X16	Y16	Z16	X17	Y17	Z17	X18	Y18	Z18	X19	Y19	Z19	X20	Y20	Z20	X21	Y21	Z21	X22	Y22	Z22	X23	Y23	Z23	X24	Y24	Z24	X25	Y25	Z25	X26	Y26	Z26	X27	Y27	Z27	X28	Y28	Z28	X29	Y29	Z29	X30	Y30	Z30	X31	Y31	Z31	X32	Y32	Z32	X33	Y33	Z33	X34	Y34	Z34	X35	Y35	Z35	X36	Y36	Z36	X37	Y37	Z37	X38	Y38	Z38	

27	0.260000	-51.841586	1039.157501	54.224224	142.951988	1005.204659	183.450588	144.335202	1003.313615	-63.106485	49.585371	522.980081	178.477700	28.608983	516.686736	63.353734	144.382385	741.280246	181.366226	135.563206	650.498675	141.113342	104.388804	650.770993	184.528727	57.872875	524.102736	-109.631911	54.563905	513.047752	9.757623	151.299509	777.127446	-88.520103	152.425183	675.396781	-53.615238	117.985692	676.594490	-103.439631	-8.640928	99.883845	146.759914	1.097404	112.046620	65.640891	59.895445	319.856924	135.632725	44.642561	227.067359	99.835290	34.758176	222.998877	157.535859	-6.115944	108.793162	-131.361259	4.957045	105.033684	-51.068238	64.405134	301.940531	-82.383256	47.351526	208.570652	-55.583591	53.323214	213.274394	-114.742995	-70.535619	49.432474	106.051946	138.379102	55.909988	81.428136	107.456127	51.094874	159.647234	-70.437874	51.412158	-104.908440	135.472366	53.439198	-76.444318	111.181640	49.935421	-153.466172	75.622303	1402.792202	70.110162	-7.883265	1421.838685	232.204928	14.334029	1439.158077	-107.499560	-0.579450	106.913423	-91.214749	-3.771762	105.965233	106.200403	72.528963	930.161868	-28.330110	71.534138	931.521931	148.996900	56.218390	518.575244	-49.937144	39.097177	519.833408	120.915717	
28	0.270000	-51.819211	1039.153886	54.254631	142.978408	1005.211762	183.468574	144.346974	1003.294927	-63.094089	49.603736	522.972392	178.503758	28.616544	516.687253	63.370802	144.397962	741.279407	181.390689	135.583595	650.499699	141.141601	104.402505	650.768377	184.553863	57.877331	524.098481	-109.610088	54.574179	513.037523	9.781639	151.298906	777.116470	-88.493257	152.434129	675.388741	-53.591010	117.990654	676.587201	-103.412151	-8.638036	99.883624	146.764227	1.097796	112.050218	65.646222	59.903294	319.856262	135.640742	44.646588	227.068174	99.842217	34.764728	222.995531	157.542919	-6.115331	108.793605	-131.355443	4.958260	105.029952	-51.062334	64.408949	301.937905	-82.372079	47.374419	208.585216	-55.578354	53.326734	213.278835	-114.733083	-70.538344	49.431356	106.051951	138.377875	55.909309	81.429980	107.455611	51.094262	159.648955	-70.437198	51.411622	-104.905737	135.474401	53.440462	-76.440780	111.182065	49.936676	-153.464601	75.669497	1402.781790	70.064779	-7.822831	1421.855958	232.166492	14.370300	1439.140434	-107.539560	-0.578536	106.911778	-91.208889	-3.770120	105.966921	106.205225	72.542042	930.146201	-28.304829	71.557753	931.524811	149.025863	56.225755	518.568002	-49.914224	39.110140	519.829822	120.937280	
29	0.280000	-51.794564	1039.150008	54.285578	143.004910	1005.216777	183.486713	144.358690	1003.275517	-63.082329	49.620983	522.963787	178.530061	28.624517	516.688210	63.387059	144.413411	741.278196	181.414743	135.603771	650.499826	141.169322	104.417866	650.765279	184.579222	57.877725	524.094559	-109.590280	54.582236	513.028170	9.803880	151.293707	777.105006	-88.470243	152.440299	675.380443	-53.571442	117.991520	676.580092	-103.388998	-8.635012	99.883143	146.768663	1.097679	112.053326	65.651268	59.910834	319.855673	135.649175	44.651832	227.069643	99.849720	34.770237	222.992382	157.549978	-6.115478	108.793742	-131.349864	4.958665	105.026456	-51.057437	64.410295	301.935674	-82.362146	47.386373	208.590171	-55.571873	53.329820	213.283713	-114.724786	-70.540945	49.430269	106.052984	138.377000	55.907972	81.431895	107.454838	51.093202	159.650947	-70.436676	51.410639	-104.903479	135.475830	53.440806	-76.436354	111.182632	49.937394	-153.463062	75.718351	1402.770423	70.023296	-7.761478	1421.871555	232.131723	14.412185	1439.123734	-107.576090	-0.578407	106.910099	-91.203650	-3.768667	105.968234	106.209966	72.554978	930.129839	-28.280420	71.581326	931.526013	149.054475	56.229980	518.561365	-49.893200	39.122750	519.825998	120.958560	
30	0.290000	-51.767452	1039.146396	54.316789	143.031059	1005.219554	183.504872	144.370547	1003.255771	-63.070856	49.636575	522.954175	178.555838	28.633620	516.689673	63.401914	144.428446	741.276676	181.438193	135.623316	650.498961	141.196027	104.434762	650.761989	184.604339	57.874511	524.091059	-109.572650	54.588008	513.019735	9.823997	151.284691	777.093236	-88.451035	152.444219	675.372077	-53.556413	117.988889	676.573314	-103.370211	-8.632152	99.882469	146.772924	1.097138	112.055852	65.655747	59.918166	319.855031	135.657730	44.658238	227.071635	99.857546	34.774672	222.989608	157.556886	-6.116288	108.793566	-131.344751	4.958239	105.023219	-51.053774	64.409355	301.933824	-82.353192	47.388245	208.586509	-55.564363	53.332863	213.289122	-114.718063	-70.542965	49.429408	106.054830	138.376690	55.906195	81.433736	107.453966	51.091876	159.653028	-70.436315	51.409216	-104.901703	135.476451	53.439963	-76.431618	111.183325	49.937605	-153.461611	75.768702	1402.758493	69.986166	-7.699058	1421.886080	232.100575	14.460174	1439.108089	-107.608817	-0.579025	106.908392	-91.199262	-3.767507	105.969161	106.214336	72.567793	930.113385	-28.256962	71.604423	931.525754	149.082340	56.231259	518.555397	-49.874327	39.135097	519.821924	120.978876	
31	0.300000	-51.738030	1039.143654	54.347913	143.056537	1005.220088	183.522809	144.382698	1003.236200	-63.059384	49.650240	522.943605	178.580260	28.644484	516.691646	63.414883	144.442938	741.274941	181.460778	135.642038	650.497140	141.221226	104.453009	650.758792	184.628682	57.868395	524.088065	-109.557252	54.591610	513.012185	9.841781	151.272857	777.081465	-88.435423	152.446481	675.363858	-53.545515	117.983488	676.567015	-103.355546	-8.629697	99.881712	146.776719	1.096348	112.057779	65.659433	59.925491	319.854233	135.666046	44.665610	227.073932	99.865352	34.778155	222.987358	157.563487	-6.117602	108.793107	-131.340274	4.957060	105.020217	-51.051380	64.406509	301.932342	-82.344936	47.382117	208.576380	-55.556254	53.336399	213.295208	-114.712767	-70.544064	49.428962	106.057208	138.377082	55.904201	81.435376	107.453117	51.090480	159.654999	-70.436097	51.407417	-104.900378	135.476176	53.437817	-76.427156	111.184118	49.937385	-153.460312	75.820332	1402.746404	69.953828	-7.635596	1421.900120	232.073014	14.514575	1439.093571	-107.637412	-0.580271	106.906662	-91.195827	-3.766674	105.969745	106.218076	72.580449	930.097556	-28.234551	71.626666	931.524381	149.109012	56.230003	518.550125	-49.857736	39.147362	519.817625	120.997571	
32	0.310000	-51.706820	1039.142382	54.378532	143.081167	1005.218508	183.540221	144.395262	1003.217373	-63.047726	49.661990	522.932276	178.602522	28.657554	516.694091	63.425619	144.456915	741.273107	181.482203	135.659957	650.494495	141.244477	104.472338	650.755907	184.651706	57.860294	524.085653	-109.544036	54.593343	513.005448	9.857174	151.259357	777.070096	-88.423036	152.447707	675.356006	-53.538098	117.976138	676.561322	-103.344509	-8.627802	99.881002	146.779788	1.095538	112.059159	65.662175	59.933041	319.853214	135.673748	44.673636	227.076264	99.872756	34.780891	222.985744	157.569622	-6.119214	108.792444	-131.336528	4.955302	105.017399	-51.050090	64.402295	301.931223	-82.337143	47.371035	208.562806	-55.548127	53.341026	213.302096	-114.708682	-70.544063	49.429076	106.059797	138.378218	55.902184	81.436714	107.452362	51.089200	159.656669	-70.435980	51.405356	-104.899414	135.475042	53.434418	-76.423470	111.184964	49.936841	-153.459235	75.873036	1402.734528	69.926663	-7.571205	1421.914186	232.049065	14.575416	1439.080174	-107.661563	-0.581956	106.904922	-91.193309	-3.766132	105.970080	106.220982	72.592866	930.083080	-28.213304	71.647763	931.522307	149.134053	56.226819	518.545550	-49.843431	39.159772	519.813183	121.014070	
